<svg version="1.1" id="Layer_1" xmlns="http://www.w3.org/2000/svg" xmlns:xlink="http://www.w3.org/1999/xlink" x="0px" y="0px"
	 width="100%" viewBox="0 0 1024 848" enable-background="new 0 0 1024 848" xml:space="preserve">
<path fill="#000000" opacity="1.000000" stroke="none" 
	d="
M494.315186,596.768555 
	C437.015808,567.865662 401.409698,522.419373 391.373413,459.360107 
	C380.696716,392.277191 402.257080,335.483551 452.885651,290.234131 
	C481.543304,264.621277 515.575378,250.107559 553.747498,246.036179 
	C638.831848,236.961227 717.675171,285.160217 747.216797,361.135101 
	C772.573730,426.347687 763.962646,488.010254 721.405273,543.519165 
	C690.332458,584.048523 648.357788,607.330933 597.319519,613.434021 
	C561.540649,617.712463 527.319580,612.104492 494.315186,596.768555 
M676.634033,297.879120 
	C642.184875,272.425751 603.755310,260.590759 560.860229,264.066254 
	C522.262756,267.193512 488.248749,281.543579 460.512817,308.410217 
	C410.398773,356.953613 394.986328,415.741547 415.858734,482.129028 
	C443.884460,571.268433 544.861816,619.176941 632.643799,586.350342 
	C706.417725,558.762146 755.956604,482.340637 738.819275,396.533081 
	C730.771362,356.236603 709.415588,323.726807 676.634033,297.879120 
z"/>
<path fill="#000000" opacity="1.000000" stroke="none" 
	d="
M304.045746,301.046082 
	C297.990753,307.034454 292.106628,312.693695 286.399628,318.526245 
	C284.289093,320.683167 282.710358,320.827728 280.648163,318.543884 
	C277.188751,314.712646 273.598328,310.995605 269.968994,307.323425 
	C267.797638,305.126465 267.670959,303.373260 270.027985,301.055511 
	C286.419586,284.936981 302.719696,268.725189 319.003632,252.497665 
	C320.910675,250.597198 323.009827,249.718857 325.693756,249.808395 
	C329.354889,249.930573 333.044403,250.095322 336.682861,249.785400 
	C341.537628,249.371841 343.020264,251.322922 342.999847,256.098755 
	C342.852997,290.417023 342.945740,324.736298 342.939636,359.055237 
	C342.931732,403.536652 342.952789,448.018127 342.865234,492.499420 
	C342.806580,522.294495 342.555450,552.089233 342.446960,581.884338 
	C342.417877,589.868713 342.478363,597.857666 342.732483,605.837036 
	C342.846130,609.405457 341.697601,611.159790 337.949646,611.031860 
	C333.789062,610.889771 329.620819,610.984497 325.456177,610.945435 
	C319.234131,610.887085 318.930267,610.580872 318.929932,604.472107 
	C318.927338,558.491272 318.914490,512.510437 318.930389,466.529602 
	C318.950378,408.720490 318.998047,350.911377 319.012665,293.102264 
	C319.013123,291.317383 319.362396,289.464691 318.100525,287.071136 
	C313.375122,291.762665 308.830994,296.274200 304.045746,301.046082 
z"/>
<path fill="#000000" opacity="1.000000" stroke="none" 
	d="
M519.000122,422.572449 
	C534.476807,422.572784 549.453430,422.572784 563.579163,422.572784 
	C565.184753,421.356140 565.178162,420.538666 565.177307,419.690155 
	C565.141602,384.041290 565.112610,348.392395 565.094055,312.743530 
	C565.093262,311.246277 565.099182,309.737396 565.271606,308.253662 
	C565.994873,302.031006 569.539490,298.507233 574.742188,298.748840 
	C580.204773,299.002533 583.943604,303.096497 583.700317,309.269745 
	C583.424316,316.270905 583.809143,323.249512 583.804504,330.234711 
	C583.782227,363.537109 583.559204,396.839508 583.354492,430.141602 
	C583.310181,437.348175 579.947327,440.965332 572.619934,441.002197 
	C547.799316,441.127075 522.976868,441.111053 498.156616,440.940247 
	C490.522522,440.887726 485.691864,435.233398 487.620392,429.216095 
	C488.985107,424.957947 491.858429,422.603699 496.510498,422.621490 
	C503.840210,422.649536 511.170227,422.592896 519.000122,422.572449 
z"/>
</svg>