<svg width="240" xmlns="http://www.w3.org/2000/svg" height="240" id="screenshot-bb97914f-a479-8029-8006-f03755c96c3e" viewBox="0 0 240 240" xmlns:xlink="http://www.w3.org/1999/xlink" fill="none" version="1.1"><g id="shape-bb97914f-a479-8029-8006-f03755c96c3e" rx="0" ry="0"><g id="shape-bb97914f-a479-8029-8006-f0249a7e69a6"><g class="fills" id="fills-bb97914f-a479-8029-8006-f0249a7e69a6"><rect rx="0" ry="0" x="0" y="0" transform="matrix(1.000000, 0.000000, 0.000000, 1.000000, 0.000000, 0.000000)" width="240" height="240"/></g></g><g id="shape-bb97914f-a479-8029-8006-f036d9336655"><g class="fills" id="fills-bb97914f-a479-8029-8006-f036d9336655"><path d="M120,40C164.1531982421875,40,200,75.8468017578125,200,120C200,135.78131103515625,195.4205322265625,150.50149536132812,187.5191650390625,162.90301513671875C173.31399536132812,185.1986083984375,148.37188720703125,200,120,200C75.8468017578125,200,40,164.1531982421875,40,120C40,75.8468017578125,75.8468017578125,40,120,40"/></g></g><g id="shape-bb97914f-a479-8029-8006-f0372ad5c046" xml:space="preserve" rx="0" ry="0" style="fill: rgb(0, 0, 0);"><g id="shape-bb97914f-a479-8029-8006-f0372ad6baaf" style="display: none;"><g class="fills" id="fills-bb97914f-a479-8029-8006-f0372ad6baaf"><rect width="160" height="128.75" x="40" transform="matrix(1.000000, 0.000000, 0.000000, 1.000000, 0.000000, 0.000000)" style="fill: none;" ry="0" fill="none" rx="0" y="56"/></g></g><g id="shape-bb97914f-a479-8029-8006-f0372ad77f41"><g class="fills" id="fills-bb97914f-a479-8029-8006-f0372ad77f41"><path d="M117.23675537109375,146.6060791015625C108.28372192382812,142.21771240234375,102.72027587890625,135.31781005859375,101.152099609375,125.74368286132812C99.48385620117188,115.55862426757812,102.8526611328125,106.93569946289062,110.76339721679688,100.06561279296875C115.24114990234375,96.17684936523438,120.55865478515625,93.97329711914062,126.52304077148438,93.35516357421875C139.81747436523438,91.97732543945312,152.13674926757812,99.29525756835938,156.75262451171875,110.830322265625C160.71466064453125,120.73141479492188,159.36917114257812,130.09359741210938,152.71957397460938,138.5213623046875C147.86444091796875,144.67486572265625,141.305908203125,148.20977783203125,133.3311767578125,149.1363525390625C127.74072265625,149.78585815429688,122.3936767578125,148.9345703125,117.23675537109375,146.6060791015625M145.72406005859375,101.22634887695312C140.34140014648438,97.36181640625,134.33676147460938,95.56494140625,127.6343994140625,96.09259033203125C121.60354614257812,96.5673828125,116.28887939453125,98.74618530273438,111.95513916015625,102.8253173828125C104.12481689453125,110.19552612304688,101.71661376953125,119.12112426757812,104.97793579101562,129.20062255859375C109.35693359375,142.73452758789062,125.1346435546875,150.00830078125,138.8505859375,145.02423095703125C150.37777709960938,140.8355712890625,158.11822509765625,129.2327880859375,155.44052124023438,116.2047119140625C154.18301391601562,110.08657836914062,150.84619140625,105.1507568359375,145.72406005859375,101.22634887695312Z"/></g></g><g id="shape-bb97914f-a479-8029-8006-f0372ad78727"><g class="fills" id="fills-bb97914f-a479-8029-8006-f0372ad78727"><path d="M87.50714111328125,101.7071533203125C86.56106567382812,102.61639404296875,85.64166259765625,103.4755859375,84.74993896484375,104.36117553710938C84.420166015625,104.6885986328125,84.17349243164062,104.71060180664062,83.85128784179688,104.36383056640625C83.31072998046875,103.78213500976562,82.74972534179688,103.21783447265625,82.18264770507812,102.66030883789062C81.8433837890625,102.32662963867188,81.82357788085938,102.06048583984375,82.19186401367188,101.7086181640625C84.7530517578125,99.26141357421875,87.29995727539062,96.79995727539062,89.84432983398438,94.33615112304688C90.14230346679688,94.047607421875,90.47027587890625,93.91427612304688,90.8896484375,93.9278564453125C91.46170043945312,93.94644165039062,92.03817749023438,93.971435546875,92.606689453125,93.92437744140625C93.36526489257812,93.86160278320312,93.596923828125,94.15780639648438,93.59371948242188,94.8829345703125C93.57077026367188,100.09341430664062,93.58526611328125,105.30404663085938,93.58432006835938,110.51461791992188C93.58306884765625,117.26812744140625,93.58636474609375,124.02163696289062,93.57269287109375,130.77511596679688C93.56353759765625,135.29885864257812,93.5242919921875,139.82244873046875,93.50732421875,144.34634399414062C93.5028076171875,145.55841064453125,93.51223754882812,146.77145385742188,93.55194091796875,147.98297119140625C93.5697021484375,148.52474975585938,93.3902587890625,148.79107666015625,92.80462646484375,148.77154541015625C92.154541015625,148.75003051757812,91.50326538085938,148.76437377929688,90.8525390625,148.75848388671875C89.88034057617188,148.7496337890625,89.83285522460938,148.703125,89.83279418945312,147.77566528320312C89.8323974609375,140.79461669921875,89.83038330078125,133.8133544921875,89.8328857421875,126.83221435546875C89.83599853515625,118.05508422851562,89.84344482421875,109.278076171875,89.84573364257812,100.50106811523438C89.84579467773438,100.23007202148438,89.900390625,99.9488525390625,89.70321655273438,99.58538818359375C88.96487426757812,100.29769897460938,88.25485229492188,100.98272705078125,87.50714111328125,101.7071533203125Z"/></g></g><g id="shape-bb97914f-a479-8029-8006-f0372ad82e70"><g class="fills" id="fills-bb97914f-a479-8029-8006-f0372ad82e70"><path d="M121.832763671875,117.27679443359375C123.86428833007812,118.58856201171875,125.8302001953125,119.85794067382812,127.68438720703125,121.05511474609375C127.995361328125,121.03604125976562,128.06182861328125,120.93124389648438,128.13156127929688,120.82293701171875C131.06283569335938,116.2728271484375,133.99490356445312,111.723388671875,136.92840576171875,107.17474365234375C137.05160522460938,106.98373413085938,137.17666625976562,106.79171752929688,137.32147216796875,106.61715698242188C137.92889404296875,105.88467407226562,138.68435668945312,105.73565673828125,139.34738159179688,106.20745849609375C140.04351806640625,106.70278930664062,140.19717407226562,107.5418701171875,139.6568603515625,108.30862426757812C139.04397583007812,109.17825317382812,138.51980590820312,110.10098266601562,137.94390869140625,110.99154663085938C135.1983642578125,115.23739624023438,132.42633056640625,119.46630859375,129.6568603515625,123.69662475585938C129.05755615234375,124.61203002929688,128.31826782226562,124.78836059570312,127.35336303710938,124.17208862304688C124.08499145507812,122.08432006835938,120.82797241210938,119.97848510742188,117.58401489257812,117.85299682617188C116.58624267578125,117.19924926757812,116.41778564453125,116.06866455078125,117.16650390625,115.46456909179688C117.69635009765625,115.03717041015625,118.26739501953125,114.98040771484375,118.87661743164062,115.376953125C119.83642578125,116.00177001953125,120.80331420898438,116.61575317382812,121.832763671875,117.27679443359375L121.832763671875,117.27679443359375" style="fill: rgb(30, 214, 140); fill-opacity: 1;"/></g></g></g></g></svg>