<?xml version="1.0"?><svg height="20" version="1.1" viewBox="0 0 20 20" width="20" xmlns="http://www.w3.org/2000/svg"><g id="layer1"><path d="M 3 0 L 3 3 L 4 3 L 4 0 L 3 0 z M 16 0 L 16 3 L 17 3 L 17 0 L 16 0 z M 0 1 L 0 20 L 20 20 L 20 1 L 18 1 L 18 2 L 19 2 L 19 5 L 1 5 L 1 2 L 2 2 L 2 1 L 0 1 z M 5 1 L 5 2 L 15 2 L 15 1 L 5 1 z M 1 6 L 19 6 L 19 19 L 1 19 L 1 6 z M 9 9 L 9 10 L 10 10 L 10 16 L 11 16 L 11 9 L 9 9 z " style="fill:#222222; fill-opacity:1; stroke:none; stroke-width:0px;"/></g></svg>