<?xml version="1.0"?><svg height="20" version="1.1" viewBox="0 0 20 20" width="20" xmlns="http://www.w3.org/2000/svg"><g id="layer1"><path d="M 3 0 L 3 3 L 4 3 L 4 0 L 3 0 z M 16 0 L 16 3 L 17 3 L 17 0 L 16 0 z M 0 1 L 0 5 L 0 6 L 0 20 L 20 20 L 20 6 L 20 5 L 20 1 L 18 1 L 18 2 L 19 2 L 19 5 L 1 5 L 1 2 L 2 2 L 2 1 L 0 1 z M 5 1 L 5 2 L 15 2 L 15 1 L 5 1 z M 1 6 L 19 6 L 19 19 L 1 19 L 1 6 z M 9 8 L 9 9 L 11 9 L 11 8 L 9 8 z M 12 8 L 12 9 L 14 9 L 14 8 L 12 8 z M 15 8 L 15 9 L 17 9 L 17 8 L 15 8 z M 3 10 L 3 11 L 5 11 L 5 10 L 3 10 z M 6 10 L 6 11 L 8 11 L 8 10 L 6 10 z M 9 10 L 9 11 L 11 11 L 11 10 L 9 10 z M 12 10 L 12 11 L 14 11 L 14 10 L 12 10 z M 15 10 L 15 11 L 17 11 L 17 10 L 15 10 z M 3 12 L 3 13 L 5 13 L 5 12 L 3 12 z M 6 12 L 6 13 L 8 13 L 8 12 L 6 12 z M 9 12 L 9 13 L 11 13 L 11 12 L 9 12 z M 12 12 L 12 13 L 14 13 L 14 12 L 12 12 z M 15 12 L 15 13 L 17 13 L 17 12 L 15 12 z M 3 14 L 3 15 L 5 15 L 5 14 L 3 14 z M 6 14 L 6 15 L 8 15 L 8 14 L 6 14 z M 9 14 L 9 15 L 11 15 L 11 14 L 9 14 z M 12 14 L 12 15 L 14 15 L 14 14 L 12 14 z M 15 14 L 15 15 L 17 15 L 17 14 L 15 14 z M 3 16 L 3 17 L 5 17 L 5 16 L 3 16 z M 6 16 L 6 17 L 8 17 L 8 16 L 6 16 z M 9 16 L 9 17 L 11 17 L 11 16 L 9 16 z M 12 16 L 12 17 L 14 17 L 14 16 L 12 16 z " style="fill:#222222; fill-opacity:1; stroke:none; stroke-width:0px;"/></g></svg>